<svg width="224" height="149" viewBox="0 0 224 149" fill="none" xmlns="http://www.w3.org/2000/svg">
<path fill-rule="evenodd" clip-rule="evenodd" d="M4 0H0V58H4V54H8V50H12V46H16V54H20V62H24V70H28V73H36V70H40V62H36V54H32V46H28V43H43V39H40V35H36V31H32V27H28V23H24V19H20V15H16V11H12V7H8V3H4V0ZM8 7V11H12V15H16V19H20V23H24V27H28V31H32V35H36V39H24V46H28V54H32V62H36V70H28V62H24V54H20V46H16V42H12V46H8V50H4V7H8Z" fill="black"/>
<path fill-rule="evenodd" clip-rule="evenodd" d="M8 7V11H12V15H16V19H20V23H24V27H28V31H32V35H36V39H24V46H28V54H32V62H36V70H28V62H24V54H20V46H16V42H12V46H8V50H4V7H8Z" fill="#FFFF50"/>
<path d="M8 11V7H4V50H8V46H12V42H16V46H20V54H24V62H28V70H36V62H32V54H28V46H24V39H36V35H32V31H28V27H24V23H20V19H16V15H12V11H8Z" fill="#FFFF50"/>
<g filter="url(#filter0_d_18_72634)">
<rect x="58" y="71" width="142" height="58" fill="#FFFF50"/>
<path d="M86.16 86.684V108.398C86.16 109.63 85.95 110.75 85.53 111.758C85.11 112.766 84.508 113.62 83.724 114.32C82.968 115.02 82.058 115.566 80.994 115.958C79.93 116.322 78.768 116.504 77.508 116.504C75.268 116.504 73.42 115.93 71.964 114.782C70.508 113.606 69.556 111.968 69.108 109.868L72.468 109.154C72.608 109.742 72.79 110.302 73.014 110.834C73.266 111.338 73.588 111.786 73.98 112.178C74.4 112.542 74.904 112.836 75.492 113.06C76.08 113.284 76.78 113.396 77.592 113.396C79.188 113.396 80.42 112.948 81.288 112.052C82.184 111.128 82.632 109.7 82.632 107.768V89.75H72.048V86.684H86.16ZM108.908 112.472H108.74C108.516 113.004 108.236 113.522 107.9 114.026C107.564 114.502 107.144 114.922 106.64 115.286C106.164 115.65 105.59 115.944 104.918 116.168C104.246 116.392 103.462 116.504 102.566 116.504C100.298 116.504 98.4776 115.79 97.1056 114.362C95.7336 112.906 95.0476 110.862 95.0476 108.23V94.328H98.4076V107.642C98.4076 109.63 98.8416 111.114 99.7096 112.094C100.578 113.046 101.852 113.522 103.532 113.522C104.204 113.522 104.862 113.438 105.506 113.27C106.15 113.102 106.724 112.85 107.228 112.514C107.732 112.178 108.138 111.758 108.446 111.254C108.754 110.722 108.908 110.092 108.908 109.364V94.328H112.268V116H108.908V112.472ZM119.727 113.144H127.287V87.776H119.727V84.92H130.647V113.144H138.207V116H119.727V113.144ZM155.495 89.54C154.515 89.54 153.829 89.344 153.437 88.952C153.045 88.532 152.849 88.014 152.849 87.398V86.726C152.849 86.11 153.045 85.606 153.437 85.214C153.829 84.794 154.515 84.584 155.495 84.584C156.475 84.584 157.161 84.794 157.553 85.214C157.945 85.606 158.141 86.11 158.141 86.726V87.398C158.141 88.014 157.945 88.532 157.553 88.952C157.161 89.344 156.475 89.54 155.495 89.54ZM146.003 113.144H153.815V97.184H146.003V94.328H157.175V113.144H164.483V116H146.003V113.144ZM179.334 116.504C177.822 116.504 176.45 116.238 175.218 115.706C174.014 115.174 172.978 114.418 172.11 113.438C171.27 112.43 170.626 111.24 170.178 109.868C169.73 108.468 169.506 106.9 169.506 105.164C169.506 103.456 169.73 101.902 170.178 100.502C170.626 99.102 171.27 97.912 172.11 96.932C172.978 95.924 174.014 95.154 175.218 94.622C176.45 94.09 177.822 93.824 179.334 93.824C180.846 93.824 182.204 94.09 183.408 94.622C184.64 95.154 185.676 95.924 186.516 96.932C187.384 97.912 188.042 99.102 188.49 100.502C188.938 101.902 189.162 103.456 189.162 105.164C189.162 106.9 188.938 108.468 188.49 109.868C188.042 111.24 187.384 112.43 186.516 113.438C185.676 114.418 184.64 115.174 183.408 115.706C182.204 116.238 180.846 116.504 179.334 116.504ZM179.334 113.606C181.21 113.606 182.722 113.046 183.87 111.926C185.018 110.806 185.592 109.07 185.592 106.718V103.61C185.592 101.258 185.018 99.522 183.87 98.402C182.722 97.282 181.21 96.722 179.334 96.722C177.458 96.722 175.946 97.282 174.798 98.402C173.65 99.522 173.076 101.258 173.076 103.61V106.718C173.076 109.07 173.65 110.806 174.798 111.926C175.946 113.046 177.458 113.606 179.334 113.606Z" fill="black"/>
<rect x="54" y="67" width="150" height="66" stroke="black" stroke-width="8"/>
</g>
<defs>
<filter id="filter0_d_18_72634" x="50" y="63" width="174" height="86" filterUnits="userSpaceOnUse" color-interpolation-filters="sRGB">
<feFlood flood-opacity="0" result="BackgroundImageFix"/>
<feColorMatrix in="SourceAlpha" type="matrix" values="0 0 0 0 0 0 0 0 0 0 0 0 0 0 0 0 0 0 127 0" result="hardAlpha"/>
<feOffset dx="16" dy="12"/>
<feComposite in2="hardAlpha" operator="out"/>
<feColorMatrix type="matrix" values="0 0 0 0 0 0 0 0 0 0 0 0 0 0 0 0 0 0 1 0"/>
<feBlend mode="normal" in2="BackgroundImageFix" result="effect1_dropShadow_18_72634"/>
<feBlend mode="normal" in="SourceGraphic" in2="effect1_dropShadow_18_72634" result="shape"/>
</filter>
</defs>
</svg>
