<svg width="128" height="154" viewBox="0 0 128 154" fill="none" xmlns="http://www.w3.org/2000/svg">
<path d="M24 30H96V34H24V30Z" fill="black"/>
<path d="M20 38V34H24V38H20Z" fill="black"/>
<path d="M16 42V38H20V42H16Z" fill="black"/>
<path d="M12 46V42H16V46H12Z" fill="black"/>
<path d="M8 50V46H12V50H8Z" fill="black"/>
<path d="M4 54V50H8V54H4Z" fill="black"/>
<path d="M16 70H24V82H16V70Z" fill="black"/>
<path fill-rule="evenodd" clip-rule="evenodd" d="M116 54H120V66H124V74H128V98H4V94H0V54H4V62H116V54ZM4 90H116V66H4V90Z" fill="black"/>
<path d="M112 50H116V54H112V50Z" fill="black"/>
<path d="M108 46H112V50H108V46Z" fill="black"/>
<path d="M104 42H108V46H104V42Z" fill="black"/>
<path d="M100 38H104V42H100V38Z" fill="black"/>
<path d="M100 38V34H96V38H100Z" fill="black"/>
<path d="M24 34V38H20V42H16V46H12V50H8V54H4V62H116V54H112V50H108V46H104V42H100V38H96V34H24Z" fill="#C4C4C4"/>
<path fill-rule="evenodd" clip-rule="evenodd" d="M4 66H116V90H4V66ZM24 82H16V70H24V82Z" fill="#C4C4C4"/>
<path d="M24.7913 142.54L24.9113 138.5H24.7313L22.0313 145.68L19.3313 138.5H19.1513L19.2713 142.54V149H16.9913V135.04H20.1113L22.0513 140.18H22.1913L24.1513 135.04H27.0713V149H24.7913V142.54ZM32.7234 149V143.9L28.1834 135.04H31.1034L32.7234 138.4L33.9834 141.26H34.1234L35.4034 138.4L37.0434 135.04H39.8634L35.3234 143.9V149H32.7234ZM53.4678 135.04H57.8078C59.6211 135.04 60.9678 135.64 61.8478 136.84C62.7411 138.04 63.1878 139.767 63.1878 142.02C63.1878 144.287 62.7411 146.02 61.8478 147.22C60.9678 148.407 59.6211 149 57.8078 149H53.4678V135.04ZM57.6278 146.9C58.5878 146.9 59.2945 146.587 59.7478 145.96C60.2145 145.333 60.4478 144.42 60.4478 143.22V140.8C60.4478 139.613 60.2145 138.707 59.7478 138.08C59.2945 137.453 58.5878 137.14 57.6278 137.14H56.0478V146.9H57.6278ZM68.22 149H65.6V135.04H70.9C72.26 135.04 73.3 135.427 74.02 136.2C74.74 136.973 75.1 138.027 75.1 139.36C75.1 140.387 74.86 141.253 74.38 141.96C73.9133 142.653 73.24 143.093 72.36 143.28L75.34 149H72.46L69.8 143.58H68.22V149ZM70.36 141.54C71.0667 141.54 71.5733 141.4 71.88 141.12C72.1867 140.827 72.34 140.367 72.34 139.74V138.98C72.34 138.353 72.1867 137.9 71.88 137.62C71.5733 137.327 71.0667 137.18 70.36 137.18H68.22V141.54H70.36ZM77.5522 149V147.04H80.6922V137H77.5522V135.04H86.4322V137H83.2922V147.04H86.4322V149H77.5522ZM92.1444 149L88.3244 135.04H91.2044L92.9444 142.1L93.9644 146.5H94.1044L95.1444 142.1L96.9044 135.04H99.6444L95.8244 149H92.1444ZM101.637 149V135.04H110.457V137.2H104.257V140.84H110.237V143H104.257V146.84H110.457V149H101.637Z" fill="black"/>
</svg>
