<svg width="128" height="162" viewBox="0 0 128 162" fill="none" xmlns="http://www.w3.org/2000/svg">
<path d="M72 4H4V124H96V28H72V4Z" fill="#4D7BFF"/>
<path d="M80 4H76V24H96V20H92V16H88V12H84V8H80V4Z" fill="#4D7BFF"/>
<path d="M62 56V52H64V44H60V48H58V56H48V52H50V44H46V48H44V56H30V60H42V62H40V68H30V72H38V76H36V84H40V82V80H42V72H52V74V76H50V84H54V80H56V72H70V68H58V66H60V60H70V56H62ZM56 62H54V68H44V66H46V60H56V62Z" fill="black"/>
<path fill-rule="evenodd" clip-rule="evenodd" d="M0 0H80V4H76V24H96V20H100V104H112V108H120V112H128V128H0V0ZM96 28H72V4H4V124H96V28Z" fill="black"/>
<path d="M92 16H96V20H92V16Z" fill="black"/>
<path d="M88 12H92V16H88V12Z" fill="black"/>
<path d="M84 8H88V12H84V8Z" fill="black"/>
<path d="M84 8V4H80V8H84Z" fill="black"/>
<path d="M30.7873 150.54L30.9073 146.5H30.7273L28.0273 153.68L25.3273 146.5H25.1473L25.2673 150.54V157H22.9873V143.04H26.1073L28.0473 148.18H28.1873L30.1473 143.04H33.0673V157H30.7873V150.54ZM38.7195 157V151.9L34.1795 143.04H37.0995L38.7195 146.4L39.9795 149.26H40.1195L41.3995 146.4L43.0395 143.04H45.8595L41.3195 151.9V157H38.7195ZM59.6639 157V143.04H68.7839V145.2H62.2839V148.84H68.1439V151H62.2839V157H59.6639ZM71.5561 157V155.04H74.6961V145H71.5561V143.04H80.4361V145H77.2961V155.04H80.4361V157H71.5561ZM83.9883 157V143.04H86.6083V154.84H92.7883V157H83.9883ZM95.6405 157V143.04H104.46V145.2H98.2605V148.84H104.24V151H98.2605V154.84H104.46V157H95.6405Z" fill="black"/>
</svg>
