<svg width="128" height="168" viewBox="0 0 128 168" fill="none" xmlns="http://www.w3.org/2000/svg">
<g clip-path="url(#clip0_103_18089)">
<path fill-rule="evenodd" clip-rule="evenodd" d="M12 4.00012V12.0001H4V84.0001H8V88.0001H16V92.0001H24V96.0001H32V100H40V104H48V108H56V112H64V116H72V120H80V124H88V52.0001H92V124H96V36.0001H92V32.0001H88V28.0001H80V24.0001H72V20.0001H56V24.0001H52V20.0001H48V16.0001H44V12.0001H36V8.00012H28V4.00012H12ZM84 48.0001H88V52.0001H84V48.0001ZM76 44.0001H84V48.0001H76V44.0001ZM68 40.0001H76V44.0001H68V40.0001ZM60 36.0001H68V40.0001H60V36.0001ZM52 32.0001H60V36.0001H52V32.0001ZM44 28.0001H52V32.0001H44V28.0001ZM36 24.0001H44V28.0001H36V24.0001ZM28 20.0001H36V24.0001H28V20.0001ZM20 16.0001H28V20.0001H20V16.0001ZM20 16.0001V12.0001H12V16.0001H20Z" fill="#FFFF50"/>
<path d="M8 0.00012207H28V4.00012H12V12.0001H4V84.0001H8V88.0001H0V8.00012H8V0.00012207Z" fill="black"/>
<path d="M16 92.0001V88.0001H8V92.0001H16Z" fill="black"/>
<path d="M24 96.0001V92.0001H16V96.0001H24Z" fill="black"/>
<path d="M32 100V96.0001H24V100H32Z" fill="black"/>
<path d="M40 104V100H32V104H40Z" fill="black"/>
<path d="M48 108V104H40V108H48Z" fill="black"/>
<path d="M56 112V108H48V112H56Z" fill="black"/>
<path d="M64 116V112H56V116H64Z" fill="black"/>
<path d="M72 120V116H64V120H72Z" fill="black"/>
<path d="M80 124V120H72V124H80Z" fill="black"/>
<path d="M88 52.0001V124H80V128H108V124H112V120H116V116H120V112H124V108H128V88.0001H120V84.0001H112V80.0001H100V36.0001H96V32.0001H92V28.0001H88V24.0001H80V20.0001H72V16.0001H56V20.0001H52V16.0001H48V12.0001H44V8.00012H36V4.00012H28V8.00012H36V12.0001H44V16.0001H48V20.0001H52V24.0001H56V20.0001H72V24.0001H80V28.0001H88V32.0001H92V36.0001H96V124H92V52.0001H88Z" fill="black"/>
<path d="M84 48.0001V52.0001H88V48.0001H84Z" fill="black"/>
<path d="M76 44.0001H84V48.0001H76V44.0001Z" fill="black"/>
<path d="M68 40.0001H76V44.0001H68V40.0001Z" fill="black"/>
<path d="M60 36.0001H68V40.0001H60V36.0001Z" fill="black"/>
<path d="M52 32.0001H60V36.0001H52V32.0001Z" fill="black"/>
<path d="M44 28.0001H52V32.0001H44V28.0001Z" fill="black"/>
<path d="M36 24.0001H44V28.0001H36V24.0001Z" fill="black"/>
<path d="M28 20.0001H36V24.0001H28V20.0001Z" fill="black"/>
<path d="M20 16.0001H28V20.0001H20V16.0001Z" fill="black"/>
<path d="M20 16.0001V12.0001H12V16.0001H20Z" fill="black"/>
</g>
<path d="M54.4317 155.06H54.2717C54.1517 155.34 54.0051 155.613 53.8317 155.88C53.6584 156.147 53.4451 156.38 53.1917 156.58C52.9384 156.78 52.6384 156.94 52.2917 157.06C51.9584 157.18 51.5717 157.24 51.1317 157.24C49.7184 157.24 48.6451 156.62 47.9117 155.38C47.1917 154.127 46.8317 152.373 46.8317 150.12C46.8317 147.747 47.2584 145.933 48.1117 144.68C48.9651 143.427 50.2784 142.8 52.0517 142.8C52.7451 142.8 53.3517 142.893 53.8717 143.08C54.4051 143.267 54.8584 143.527 55.2317 143.86C55.6184 144.193 55.9317 144.593 56.1717 145.06C56.4251 145.513 56.6251 146.007 56.7717 146.54L54.3717 147.22C54.2784 146.927 54.1717 146.64 54.0517 146.36C53.9451 146.08 53.7984 145.84 53.6117 145.64C53.4384 145.427 53.2251 145.26 52.9717 145.14C52.7184 145.007 52.4051 144.94 52.0317 144.94C51.1651 144.94 50.5451 145.287 50.1717 145.98C49.7984 146.673 49.6117 147.62 49.6117 148.82V151.06C49.6117 151.66 49.6517 152.213 49.7317 152.72C49.8251 153.213 49.9717 153.64 50.1717 154C50.3717 154.36 50.6317 154.64 50.9517 154.84C51.2717 155.027 51.6717 155.12 52.1517 155.12C52.8984 155.12 53.4651 154.9 53.8517 154.46C54.2384 154.007 54.4317 153.433 54.4317 152.74V151.6H51.8917V149.7H56.7717V157H54.4317V155.06ZM59.5639 157V155.04H62.7039V145H59.5639V143.04H68.4439V145H65.3039V155.04H68.4439V157H59.5639ZM77.2961 145.2V157H74.6961V145.2H70.4961V143.04H81.4961V145.2H77.2961Z" fill="black"/>
<defs>
<clipPath id="clip0_103_18089">
<rect width="128" height="128" fill="white"/>
</clipPath>
</defs>
</svg>
