<svg width="107" height="24" viewBox="0 0 107 24" fill="none" xmlns="http://www.w3.org/2000/svg">
<path fill-rule="evenodd" clip-rule="evenodd" d="M4 3H7V4H8V7H7V8H4V7H3V4H4V3ZM7 9H4V21H7V9ZM13 9H10V21H13V13H14V12H17V13H18V21H21V12V11H20V10H19V9H15V10H14V11H13V9Z" fill="black"/>
<path d="M37.264 19.792H35.296C34.4853 19.792 33.8027 19.6533 33.248 19.376C32.704 19.1093 32.2613 18.6987 31.92 18.144C31.5893 17.6 31.3493 16.9173 31.2 16.096C31.0613 15.2747 30.992 14.3093 30.992 13.2C30.992 11.9627 31.072 10.928 31.232 10.096C31.4027 9.25333 31.648 8.576 31.968 8.064C32.288 7.552 32.6827 7.18933 33.152 6.976C33.632 6.752 34.1867 6.64 34.816 6.64C35.456 6.64 36 6.74133 36.448 6.944C36.9067 7.14667 37.28 7.424 37.568 7.776C37.856 8.128 38.064 8.54933 38.192 9.04C38.3307 9.52 38.4 10.0373 38.4 10.592V16.544H37.264V15.632H37.184C37.0773 15.9093 36.9013 16.1653 36.656 16.4C36.4107 16.624 36.0533 16.736 35.584 16.736C34.9333 16.736 34.416 16.464 34.032 15.92C33.648 15.3653 33.456 14.496 33.456 13.312C33.456 12.128 33.648 11.2587 34.032 10.704C34.416 10.1493 34.9333 9.872 35.584 9.872C35.8187 9.872 36.0213 9.904 36.192 9.968C36.3733 10.032 36.528 10.1173 36.656 10.224C36.784 10.3307 36.8907 10.448 36.976 10.576C37.0613 10.704 37.1307 10.8373 37.184 10.976H37.264V10.592C37.264 9.68533 37.072 8.97067 36.688 8.448C36.3147 7.92533 35.7013 7.664 34.848 7.664C33.8987 7.664 33.216 8.032 32.8 8.768C32.3947 9.49333 32.192 10.6613 32.192 12.272V14.336C32.192 14.9547 32.2347 15.536 32.32 16.08C32.4053 16.6133 32.56 17.0827 32.784 17.488C33.0187 17.8827 33.3333 18.192 33.728 18.416C34.1333 18.6507 34.656 18.768 35.296 18.768H37.264V19.792ZM36 15.776C36.384 15.776 36.688 15.6693 36.912 15.456C37.1467 15.2427 37.264 14.9333 37.264 14.528V12.08C37.264 11.6747 37.1467 11.3653 36.912 11.152C36.688 10.9387 36.384 10.832 36 10.832C35.552 10.832 35.2107 10.9867 34.976 11.296C34.752 11.5947 34.64 12.1013 34.64 12.816V13.792C34.64 14.5067 34.752 15.0187 34.976 15.328C35.2107 15.6267 35.552 15.776 36 15.776ZM47.2738 6.832V15.104C47.2738 15.5733 47.1938 16 47.0338 16.384C46.8738 16.768 46.6444 17.0933 46.3458 17.36C46.0578 17.6267 45.7111 17.8347 45.3058 17.984C44.9004 18.1227 44.4578 18.192 43.9778 18.192C43.1244 18.192 42.4204 17.9733 41.8658 17.536C41.3111 17.088 40.9484 16.464 40.7778 15.664L42.0578 15.392C42.1111 15.616 42.1804 15.8293 42.2658 16.032C42.3618 16.224 42.4844 16.3947 42.6338 16.544C42.7938 16.6827 42.9858 16.7947 43.2098 16.88C43.4338 16.9653 43.7004 17.008 44.0098 17.008C44.6178 17.008 45.0871 16.8373 45.4178 16.496C45.7591 16.144 45.9298 15.6 45.9298 14.864V8H41.8978V6.832H47.2738ZM51.8115 6.832V13.536C51.8115 14.08 51.8275 14.5653 51.8595 14.992C51.8915 15.4187 51.9768 15.7867 52.1155 16.096C52.2542 16.3947 52.4675 16.624 52.7555 16.784C53.0542 16.944 53.4648 17.024 53.9875 17.024C54.5102 17.024 54.9155 16.944 55.2035 16.784C55.5022 16.624 55.7208 16.3947 55.8595 16.096C55.9982 15.7867 56.0835 15.4187 56.1155 14.992C56.1475 14.5653 56.1635 14.08 56.1635 13.536V6.832H57.5075V13.216C57.5075 14.048 57.4648 14.7733 57.3795 15.392C57.3048 16.0107 57.1395 16.528 56.8835 16.944C56.6382 17.36 56.2808 17.6747 55.8115 17.888C55.3528 18.0907 54.7448 18.192 53.9875 18.192C53.2302 18.192 52.6168 18.0907 52.1475 17.888C51.6888 17.6747 51.3315 17.36 51.0755 16.944C50.8302 16.528 50.6648 16.0107 50.5795 15.392C50.5048 14.7733 50.4675 14.048 50.4675 13.216V6.832H51.8115ZM60.7013 18V6.832H62.0453V16.832H67.3413V18H60.7013ZM69.719 18V16.928H72.503V7.904H69.719V6.832H76.631V7.904H73.847V16.928H76.631V18H69.719ZM82.7688 18.192C82.0861 18.192 81.4994 18.064 81.0088 17.808C80.5181 17.5413 80.1128 17.1627 79.7928 16.672C79.4728 16.1813 79.2381 15.5787 79.0888 14.864C78.9394 14.1493 78.8648 13.3333 78.8648 12.416C78.8648 11.5093 78.9394 10.6987 79.0888 9.984C79.2381 9.25867 79.4728 8.65067 79.7928 8.16C80.1128 7.66933 80.5181 7.296 81.0088 7.04C81.4994 6.77333 82.0861 6.64 82.7688 6.64C83.4514 6.64 84.0381 6.77333 84.5288 7.04C85.0194 7.296 85.4248 7.66933 85.7448 8.16C86.0648 8.65067 86.2994 9.25867 86.4488 9.984C86.5981 10.6987 86.6728 11.5093 86.6728 12.416C86.6728 13.3333 86.5981 14.1493 86.4488 14.864C86.2994 15.5787 86.0648 16.1813 85.7448 16.672C85.4248 17.1627 85.0194 17.5413 84.5288 17.808C84.0381 18.064 83.4514 18.192 82.7688 18.192ZM82.7688 17.024C83.2168 17.024 83.5954 16.9387 83.9048 16.768C84.2141 16.5867 84.4701 16.336 84.6728 16.016C84.8754 15.696 85.0194 15.312 85.1048 14.864C85.2008 14.4053 85.2488 13.8933 85.2488 13.328V11.504C85.2488 10.9493 85.2008 10.4427 85.1048 9.984C85.0194 9.52533 84.8754 9.136 84.6728 8.816C84.4701 8.496 84.2141 8.25067 83.9048 8.08C83.5954 7.89867 83.2168 7.808 82.7688 7.808C82.3208 7.808 81.9421 7.89867 81.6328 8.08C81.3234 8.25067 81.0674 8.496 80.8648 8.816C80.6621 9.136 80.5128 9.52533 80.4168 9.984C80.3314 10.4427 80.2888 10.9493 80.2888 11.504V13.328C80.2888 13.8933 80.3314 14.4053 80.4168 14.864C80.5128 15.312 80.6621 15.696 80.8648 16.016C81.0674 16.336 81.3234 16.5867 81.6328 16.768C81.9421 16.9387 82.3208 17.024 82.7688 17.024ZM105.812 12.864H104.724V10.912L104.82 9.872L104.772 9.856L103.748 11.008L98.3723 16.384L97.6043 15.616L102.98 10.24L104.132 9.216L104.116 9.168L103.076 9.264H101.124V8.176H105.812V12.864Z" fill="black"/>
<path d="M30 20.72H106.756V21.68H30V20.72Z" fill="black"/>
<a href="https://www.linkedin.com/company/@figma">
<rect fill="black" fill-opacity="0" y="1.6" width="76.7562" height="20.8"/>
</a>
</svg>
