<svg width="174" height="24" viewBox="0 0 174 24" fill="none" xmlns="http://www.w3.org/2000/svg">
<path fill-rule="evenodd" clip-rule="evenodd" d="M9 0.00012207H15V1.00012H18V2.00012H19V3.00012H20V4.00012H21V5.00012H22V6.00012H23V8.00012V9.00012H24V11.0001V12.0001V13.0001V15.0001H23V16.0001V18.0001H22V19.0001H21V20.0001H20V21.0001H19V22.0001H18V23.0001H15V24.0001H9V23.0001H6V22.0001H5V21.0001H4V20.0001H3V19.0001H2V18.0001H1V16.0001V15.0001H0V13.0001V12.0001V11.0001V9.00012H1V8.00012V6.00012H2V5.00012H3V4.00012H4V3.00012H5V2.00012H6V1.00012H9V0.00012207ZM6 13.0001V16.0001H3V15.0001H2V13.0001H6ZM8 13.0001H16V16.0001H8V13.0001ZM18 13.0001V16.0001H21V15.0001H22V13.0001H18ZM6 8.00012V11.0001H2V9.00012H3V8.00012H6ZM8 11.0001H16V8.00012H8V11.0001ZM22 9.00012V11.0001H18V8.00012H21V9.00012H22ZM20 18.0001H17V19.0001V20.0001H16V21.0001H15V22.0001H17V21.0001H18V20.0001H19V19.0001H20V18.0001ZM15 18.0001H9V19.0001V20.0001H10V21.0001H11V22.0001H13V21.0001H14V20.0001H15V19.0001V18.0001ZM7 18.0001H4V19.0001H5V20.0001H6V21.0001H7V22.0001H9V21.0001H8V20.0001H7V19.0001V18.0001ZM7 6.00012H4V5.00012H5V4.00012H6V3.00012H7V2.00012H9V3.00012H8V4.00012H7V5.00012V6.00012ZM15 6.00012H9V5.00012V4.00012H10V3.00012H11V2.00012H13V3.00012H14V4.00012H15V5.00012V6.00012ZM20 6.00012H17V5.00012V4.00012H16V3.00012H15V2.00012H17V3.00012H18V4.00012H19V5.00012H20V6.00012Z" fill="black"/>
<path d="M37.68 6.83212V15.1041C37.68 15.5735 37.6 16.0001 37.44 16.3841C37.28 16.7681 37.0507 17.0935 36.752 17.3601C36.464 17.6268 36.1173 17.8348 35.712 17.9841C35.3067 18.1228 34.864 18.1921 34.384 18.1921C33.5307 18.1921 32.8267 17.9735 32.272 17.5361C31.7173 17.0881 31.3547 16.4641 31.184 15.6641L32.464 15.3921C32.5173 15.6161 32.5867 15.8295 32.672 16.0321C32.768 16.2241 32.8907 16.3948 33.04 16.5441C33.2 16.6828 33.392 16.7948 33.616 16.8801C33.84 16.9655 34.1067 17.0081 34.416 17.0081C35.024 17.0081 35.4933 16.8375 35.824 16.4961C36.1653 16.1441 36.336 15.6001 36.336 14.8641V8.00012H32.304V6.83212H37.68ZM42.2178 6.83212V13.5361C42.2178 14.0801 42.2338 14.5655 42.2658 14.9921C42.2978 15.4188 42.3831 15.7868 42.5218 16.0961C42.6604 16.3948 42.8738 16.6241 43.1618 16.7841C43.4604 16.9441 43.8711 17.0241 44.3938 17.0241C44.9164 17.0241 45.3218 16.9441 45.6098 16.7841C45.9084 16.6241 46.1271 16.3948 46.2658 16.0961C46.4044 15.7868 46.4898 15.4188 46.5218 14.9921C46.5538 14.5655 46.5698 14.0801 46.5698 13.5361V6.83212H47.9138V13.2161C47.9138 14.0481 47.8711 14.7735 47.7858 15.3921C47.7111 16.0108 47.5458 16.5281 47.2898 16.9441C47.0444 17.3601 46.6871 17.6748 46.2178 17.8881C45.7591 18.0908 45.1511 18.1921 44.3938 18.1921C43.6364 18.1921 43.0231 18.0908 42.5538 17.8881C42.0951 17.6748 41.7378 17.3601 41.4818 16.9441C41.2364 16.5281 41.0711 16.0108 40.9858 15.3921C40.9111 14.7735 40.8738 14.0481 40.8738 13.2161V6.83212H42.2178ZM51.1075 18.0001V6.83212H52.4515V16.8321H57.7475V18.0001H51.1075ZM60.1253 18.0001V16.9281H62.9093V7.90412H60.1253V6.83212H67.0373V7.90412H64.2533V16.9281H67.0373V18.0001H60.1253ZM73.175 18.1921C72.4923 18.1921 71.9057 18.0641 71.415 17.8081C70.9243 17.5415 70.519 17.1628 70.199 16.6721C69.879 16.1815 69.6443 15.5788 69.495 14.8641C69.3457 14.1495 69.271 13.3335 69.271 12.4161C69.271 11.5095 69.3457 10.6988 69.495 9.98412C69.6443 9.25879 69.879 8.65079 70.199 8.16012C70.519 7.66946 70.9243 7.29612 71.415 7.04012C71.9057 6.77345 72.4923 6.64012 73.175 6.64012C73.8577 6.64012 74.4443 6.77345 74.935 7.04012C75.4257 7.29612 75.831 7.66946 76.151 8.16012C76.471 8.65079 76.7057 9.25879 76.855 9.98412C77.0043 10.6988 77.079 11.5095 77.079 12.4161C77.079 13.3335 77.0043 14.1495 76.855 14.8641C76.7057 15.5788 76.471 16.1815 76.151 16.6721C75.831 17.1628 75.4257 17.5415 74.935 17.8081C74.4443 18.0641 73.8577 18.1921 73.175 18.1921ZM73.175 17.0241C73.623 17.0241 74.0017 16.9388 74.311 16.7681C74.6203 16.5868 74.8763 16.3361 75.079 16.0161C75.2817 15.6961 75.4257 15.3121 75.511 14.8641C75.607 14.4055 75.655 13.8935 75.655 13.3281V11.5041C75.655 10.9495 75.607 10.4428 75.511 9.98412C75.4257 9.52545 75.2817 9.13612 75.079 8.81612C74.8763 8.49612 74.6203 8.25079 74.311 8.08012C74.0017 7.89879 73.623 7.80812 73.175 7.80812C72.727 7.80812 72.3483 7.89879 72.039 8.08012C71.7297 8.25079 71.4737 8.49612 71.271 8.81612C71.0683 9.13612 70.919 9.52545 70.823 9.98412C70.7377 10.4428 70.695 10.9495 70.695 11.5041V13.3281C70.695 13.8935 70.7377 14.4055 70.823 14.8641C70.919 15.3121 71.0683 15.6961 71.271 16.0161C71.4737 16.3361 71.7297 16.5868 72.039 16.7681C72.3483 16.9388 72.727 17.0241 73.175 17.0241ZM80.5768 8.54412H80.4648V18.0001H79.2488V6.83212H81.1528L84.9608 16.1921H85.0728V6.83212H86.2888V18.0001H84.3848L80.5768 8.54412ZM90.1865 6.83212V13.5361C90.1865 14.0801 90.2025 14.5655 90.2345 14.9921C90.2665 15.4188 90.3518 15.7868 90.4905 16.0961C90.6292 16.3948 90.8425 16.6241 91.1305 16.7841C91.4292 16.9441 91.8398 17.0241 92.3625 17.0241C92.8852 17.0241 93.2905 16.9441 93.5785 16.7841C93.8772 16.6241 94.0958 16.3948 94.2345 16.0961C94.3732 15.7868 94.4585 15.4188 94.4905 14.9921C94.5225 14.5655 94.5385 14.0801 94.5385 13.5361V6.83212H95.8825V13.2161C95.8825 14.0481 95.8398 14.7735 95.7545 15.3921C95.6798 16.0108 95.5145 16.5281 95.2585 16.9441C95.0132 17.3601 94.6558 17.6748 94.1865 17.8881C93.7278 18.0908 93.1198 18.1921 92.3625 18.1921C91.6052 18.1921 90.9918 18.0908 90.5225 17.8881C90.0638 17.6748 89.7065 17.3601 89.4505 16.9441C89.2052 16.5281 89.0398 16.0108 88.9545 15.3921C88.8798 14.7735 88.8425 14.0481 88.8425 13.2161V6.83212H90.1865ZM99.7643 8.54412H99.6523V18.0001H98.4363V6.83212H100.34L104.148 16.1921H104.26V6.83212H105.476V18.0001H103.572L99.7643 8.54412ZM108.19 18.0001V6.83212H115.07V8.00012H109.534V11.7601H114.878V12.9281H109.534V16.8321H115.07V18.0001H108.19ZM121.112 18.1921C120.109 18.1921 119.288 18.0108 118.648 17.6481C118.008 17.2748 117.48 16.8001 117.064 16.2241L118.04 15.4241C118.477 15.9681 118.936 16.3735 119.416 16.6401C119.906 16.9068 120.488 17.0401 121.16 17.0401C121.97 17.0401 122.589 16.8535 123.016 16.4801C123.442 16.1068 123.656 15.5841 123.656 14.9121C123.656 14.3681 123.501 13.9468 123.192 13.6481C122.882 13.3388 122.344 13.1201 121.576 12.9921L120.328 12.7841C119.784 12.6881 119.325 12.5441 118.952 12.3521C118.589 12.1601 118.296 11.9308 118.072 11.6641C117.848 11.3868 117.688 11.0881 117.592 10.7681C117.496 10.4375 117.448 10.0961 117.448 9.74412C117.448 8.72012 117.784 7.94679 118.456 7.42412C119.128 6.90145 120.034 6.64012 121.176 6.64012C122.072 6.64012 122.824 6.78945 123.432 7.08812C124.05 7.38679 124.546 7.80812 124.92 8.35212L123.976 9.16812C123.666 8.76279 123.293 8.43212 122.856 8.17612C122.418 7.92012 121.853 7.79212 121.16 7.79212C120.402 7.79212 119.821 7.95212 119.416 8.27212C119.01 8.59212 118.808 9.07212 118.808 9.71212C118.808 10.2135 118.957 10.6241 119.256 10.9441C119.565 11.2535 120.114 11.4775 120.904 11.6161L122.104 11.8241C122.648 11.9201 123.106 12.0641 123.48 12.2561C123.853 12.4481 124.152 12.6775 124.376 12.9441C124.61 13.2108 124.776 13.5095 124.872 13.8401C124.968 14.1708 125.016 14.5175 125.016 14.8801C125.016 15.9148 124.674 16.7255 123.992 17.3121C123.32 17.8988 122.36 18.1921 121.112 18.1921ZM130.738 18.1441C130.3 18.1441 129.991 18.0535 129.81 17.8721C129.639 17.6908 129.554 17.4615 129.554 17.1841V16.8961C129.554 16.6188 129.639 16.3895 129.81 16.2081C129.991 16.0268 130.3 15.9361 130.738 15.9361C131.175 15.9361 131.479 16.0268 131.65 16.2081C131.831 16.3895 131.922 16.6188 131.922 16.8961V17.1841C131.922 17.4615 131.831 17.6908 131.65 17.8721C131.479 18.0535 131.175 18.1441 130.738 18.1441ZM141.003 8.00012V18.0001H139.659V8.00012H135.931V6.83212H144.731V8.00012H141.003ZM149.429 12.5281L147.829 14.4161V18.0001H146.485V6.83212H147.829V12.6561H147.877L149.349 10.8001L152.645 6.83212H154.261L150.341 11.5361L154.373 18.0001H152.805L149.429 12.5281ZM172.969 12.8641H171.881V10.9121L171.977 9.87212L171.929 9.85612L170.905 11.0081L165.529 16.3841L164.761 15.6161L170.137 10.2401L171.289 9.21612L171.273 9.16812L170.233 9.26412H168.281V8.17612H172.969V12.8641Z" fill="black"/>
<path d="M125.938 20.7201H173.913V21.6801H125.938V20.7201Z" fill="black"/>
<a href="https://designisforeveryone.org">
<rect fill="black" fill-opacity="0" x="95.9375" y="1.6" width="47.975" height="20.8"/>
</a>
</svg>
