<svg width="128" height="162" viewBox="0 0 128 162" fill="none" xmlns="http://www.w3.org/2000/svg">
<path d="M72 4H4V124H96V28H72V4Z" fill="#4D7BFF"/>
<path d="M80 4H76V24H96V20H92V16H88V12H84V8H80V4Z" fill="#4D7BFF"/>
<path fill-rule="evenodd" clip-rule="evenodd" d="M52 46H48V48H42V50H36V52H32V54H28V72H32V62H36V64H38V76H40V78H42V80H60V78H62V76H64V64V62H70V60H74V54H70V52H64V50H58V48H52V46ZM58 76V74H60V64H58V66H52V68H48V66H42V74H44V76H58ZM58 60V62H52V64H48V62H42V60H38V58H32V56H38V54H42V52H48V50H52V52H58V54H64V56H70V58H64V60H58ZM32 74H28V80H32V74Z" fill="black"/>
<path fill-rule="evenodd" clip-rule="evenodd" d="M0 0H80V4H76V24H96V20H100V104H112V108H120V112H128V128H0V0ZM96 28H72V4H4V124H96V28Z" fill="black"/>
<path d="M92 16H96V20H92V16Z" fill="black"/>
<path d="M88 12H92V16H88V12Z" fill="black"/>
<path d="M84 8H88V12H84V8Z" fill="black"/>
<path d="M84 8V4H80V8H84Z" fill="black"/>
<path d="M27.8673 157.24C26.6673 157.24 25.6407 157.033 24.7873 156.62C23.9473 156.207 23.2607 155.66 22.7273 154.98L24.3073 153.34C24.8273 153.94 25.3873 154.387 25.9873 154.68C26.6007 154.96 27.254 155.1 27.9473 155.1C28.7473 155.1 29.3607 154.92 29.7873 154.56C30.214 154.2 30.4273 153.68 30.4273 153C30.4273 152.44 30.2673 152.02 29.9473 151.74C29.6273 151.447 29.0873 151.24 28.3273 151.12L26.8473 150.88C25.554 150.653 24.634 150.187 24.0873 149.48C23.5407 148.76 23.2673 147.913 23.2673 146.94C23.2673 145.607 23.7007 144.587 24.5673 143.88C25.434 143.16 26.634 142.8 28.1673 142.8C29.2607 142.8 30.2007 142.973 30.9873 143.32C31.7873 143.667 32.4273 144.14 32.9073 144.74L31.3673 146.38C30.994 145.94 30.5473 145.593 30.0273 145.34C29.5073 145.073 28.894 144.94 28.1873 144.94C26.6673 144.94 25.9073 145.567 25.9073 146.82C25.9073 147.353 26.0673 147.76 26.3873 148.04C26.7073 148.32 27.254 148.527 28.0273 148.66L29.4873 148.92C30.7007 149.147 31.6007 149.593 32.1873 150.26C32.774 150.927 33.0673 151.78 33.0673 152.82C33.0673 153.473 32.954 154.073 32.7273 154.62C32.5007 155.153 32.1673 155.62 31.7273 156.02C31.2873 156.407 30.7407 156.707 30.0873 156.92C29.4473 157.133 28.7073 157.24 27.8673 157.24ZM41.3195 145.2V157H38.7195V145.2H34.5195V143.04H45.5195V145.2H41.3195ZM49.8717 143.04V151.74C49.8717 152.26 49.8851 152.727 49.9117 153.14C49.9517 153.553 50.0384 153.907 50.1717 154.2C50.3184 154.48 50.5317 154.7 50.8117 154.86C51.1051 155.02 51.5051 155.1 52.0117 155.1C52.5184 155.1 52.9117 155.02 53.1917 154.86C53.4851 154.7 53.6984 154.48 53.8317 154.2C53.9784 153.907 54.0651 153.553 54.0917 153.14C54.1317 152.727 54.1517 152.26 54.1517 151.74V143.04H56.7717V151.34C56.7717 152.327 56.7117 153.187 56.5917 153.92C56.4717 154.653 56.2384 155.267 55.8917 155.76C55.5451 156.253 55.0584 156.627 54.4317 156.88C53.8184 157.12 53.0117 157.24 52.0117 157.24C51.0117 157.24 50.1984 157.12 49.5717 156.88C48.9584 156.627 48.4784 156.253 48.1317 155.76C47.7851 155.267 47.5517 154.653 47.4317 153.92C47.3117 153.187 47.2517 152.327 47.2517 151.34V143.04H49.8717ZM59.4639 143.04H63.8039C65.6172 143.04 66.9639 143.64 67.8439 144.84C68.7372 146.04 69.1839 147.767 69.1839 150.02C69.1839 152.287 68.7372 154.02 67.8439 155.22C66.9639 156.407 65.6172 157 63.8039 157H59.4639V143.04ZM63.6239 154.9C64.5839 154.9 65.2906 154.587 65.7439 153.96C66.2106 153.333 66.4439 152.42 66.4439 151.22V148.8C66.4439 147.613 66.2106 146.707 65.7439 146.08C65.2906 145.453 64.5839 145.14 63.6239 145.14H62.0439V154.9H63.6239ZM71.6561 157V143.04H80.4761V145.2H74.2761V148.84H80.2561V151H74.2761V154.84H80.4761V157H71.6561ZM85.7683 146.98H85.5683V157H83.3283V143.04H86.5483L90.2083 153.06H90.4083V143.04H92.6483V157H89.4283L85.7683 146.98ZM101.28 145.2V157H98.6805V145.2H94.4805V143.04H105.48V145.2H101.28Z" fill="black"/>
</svg>
